# Blender 4.1.0
# www.blender.org
o CircleBase
v 0.000000 -0.100000 -3.000000
v 0.000000 0.100000 -3.000000
v 0.585271 -0.100000 -2.942356
v 0.585271 0.100000 -2.942356
v 1.148050 -0.100000 -2.771638
v 1.148050 0.100000 -2.771638
v 1.666711 -0.100000 -2.494409
v 1.666711 0.100000 -2.494409
v 2.121320 -0.100000 -2.121320
v 2.121320 0.100000 -2.121320
v 2.494409 -0.100000 -1.666711
v 2.494409 0.100000 -1.666711
v 2.771638 -0.100000 -1.148050
v 2.771638 0.100000 -1.148050
v 2.942356 -0.100000 -0.585271
v 2.942356 0.100000 -0.585271
v 3.000000 -0.100000 0.000000
v 3.000000 0.100000 0.000000
v 2.942356 -0.100000 0.585271
v 2.942356 0.100000 0.585271
v 2.771638 -0.100000 1.148050
v 2.771638 0.100000 1.148050
v 2.494409 -0.100000 1.666711
v 2.494409 0.100000 1.666711
v 2.121320 -0.100000 2.121320
v 2.121320 0.100000 2.121320
v 1.666711 -0.100000 2.494409
v 1.666711 0.100000 2.494409
v 1.148050 -0.100000 2.771638
v 1.148050 0.100000 2.771638
v 0.585271 -0.100000 2.942356
v 0.585271 0.100000 2.942356
v 0.000000 -0.100000 3.000000
v 0.000000 0.100000 3.000000
v -0.585271 -0.100000 2.942356
v -0.585271 0.100000 2.942356
v -1.148050 -0.100000 2.771638
v -1.148050 0.100000 2.771638
v -1.666711 -0.100000 2.494409
v -1.666711 0.100000 2.494409
v -2.121320 -0.100000 2.121320
v -2.121320 0.100000 2.121320
v -2.494409 -0.100000 1.666711
v -2.494409 0.100000 1.666711
v -2.771638 -0.100000 1.148050
v -2.771638 0.100000 1.148050
v -2.942356 -0.100000 0.585271
v -2.942356 0.100000 0.585271
v -3.000000 -0.100000 0.000000
v -3.000000 0.100000 0.000000
v -2.942356 -0.100000 -0.585271
v -2.942356 0.100000 -0.585271
v -2.771638 -0.100000 -1.148050
v -2.771638 0.100000 -1.148050
v -2.494409 -0.100000 -1.666711
v -2.494409 0.100000 -1.666711
v -2.121320 -0.100000 -2.121320
v -2.121320 0.100000 -2.121320
v -1.666711 -0.100000 -2.494409
v -1.666711 0.100000 -2.494409
v -1.148050 -0.100000 -2.771638
v -1.148050 0.100000 -2.771638
v -0.585271 -0.100000 -2.942356
v -0.585271 0.100000 -2.942356
v 0.585271 0.100000 -2.942356
v 0.000000 0.100000 -3.000000
v 1.148050 0.100000 -2.771638
v 1.666711 0.100000 -2.494409
v 2.121320 0.100000 -2.121320
v 2.494409 0.100000 -1.666711
v 2.771638 0.100000 -1.148050
v 2.942356 0.100000 -0.585271
v 3.000000 0.100000 0.000000
v 2.942356 0.100000 0.585271
v 2.771638 0.100000 1.148050
v 2.494409 0.100000 1.666711
v 2.121320 0.100000 2.121320
v 1.666711 0.100000 2.494409
v 1.148050 0.100000 2.771638
v 0.585271 0.100000 2.942356
v 0.000000 0.100000 3.000000
v -0.585271 0.100000 2.942356
v -1.148050 0.100000 2.771638
v -1.666711 0.100000 2.494409
v -2.121320 0.100000 2.121320
v -2.494409 0.100000 1.666711
v -2.771638 0.100000 1.148050
v -2.942356 0.100000 0.585271
v -3.000000 0.100000 0.000000
v -2.942356 0.100000 -0.585271
v -2.771638 0.100000 -1.148050
v -2.494409 0.100000 -1.666711
v -2.121320 0.100000 -2.121320
v -1.666711 0.100000 -2.494409
v -1.148050 0.100000 -2.771638
v -0.585271 0.100000 -2.942356
v 0.556007 0.100000 -2.795238
v -0.000000 0.100000 -2.850000
v 1.090648 0.100000 -2.633056
v 1.583375 0.100000 -2.369688
v 2.015254 0.100000 -2.015254
v 2.369688 0.100000 -1.583375
v 2.633056 0.100000 -1.090648
v 2.795238 0.100000 -0.556007
v 2.850000 0.100000 -0.000000
v 2.795238 0.100000 0.556007
v 2.633056 0.100000 1.090648
v 2.369688 0.100000 1.583375
v 2.015254 0.100000 2.015254
v 1.583375 0.100000 2.369688
v 1.090648 0.100000 2.633056
v 0.556007 0.100000 2.795238
v -0.000000 0.100000 2.850000
v -0.556007 0.100000 2.795238
v -1.090648 0.100000 2.633056
v -1.583375 0.100000 2.369688
v -2.015254 0.100000 2.015254
v -2.369688 0.100000 1.583375
v -2.633056 0.100000 1.090648
v -2.795238 0.100000 0.556007
v -2.850000 0.100000 -0.000000
v -2.795238 0.100000 -0.556007
v -2.633056 0.100000 -1.090648
v -2.369688 0.100000 -1.583375
v -2.015254 0.100000 -2.015254
v -1.583375 0.100000 -2.369688
v -1.090648 0.100000 -2.633056
v -0.556007 0.100000 -2.795238
v 0.556007 0.300000 -2.795238
v -0.000000 0.300000 -2.850000
v 1.090648 0.300000 -2.633056
v 1.583375 0.300000 -2.369688
v 2.015254 0.300000 -2.015254
v 2.369688 0.300000 -1.583375
v 2.633056 0.300000 -1.090648
v 2.795238 0.300000 -0.556007
v 2.850000 0.300000 -0.000000
v 2.795238 0.300000 0.556007
v 2.633056 0.300000 1.090648
v 2.369688 0.300000 1.583375
v 2.015254 0.300000 2.015254
v 1.583375 0.300000 2.369688
v 1.090648 0.300000 2.633056
v 0.556007 0.300000 2.795238
v -0.000000 0.300000 2.850000
v -0.556007 0.300000 2.795238
v -1.090648 0.300000 2.633056
v -1.583375 0.300000 2.369688
v -2.015254 0.300000 2.015254
v -2.369688 0.300000 1.583375
v -2.633056 0.300000 1.090648
v -2.795238 0.300000 0.556007
v -2.850000 0.300000 -0.000000
v -2.795238 0.300000 -0.556007
v -2.633056 0.300000 -1.090648
v -2.369688 0.300000 -1.583375
v -2.015254 0.300000 -2.015254
v -1.583375 0.300000 -2.369688
v -1.090648 0.300000 -2.633056
v -0.556007 0.300000 -2.795238
v 0.528207 0.300000 -2.655476
v 0.000000 0.300000 -2.707500
v 1.036115 0.300000 -2.501404
v 1.504206 0.300000 -2.251204
v 1.914492 0.300000 -1.914492
v 2.251204 0.300000 -1.504206
v 2.501404 0.300000 -1.036116
v 2.655476 0.300000 -0.528207
v 2.707500 0.300000 -0.000000
v 2.655476 0.300000 0.528207
v 2.501404 0.300000 1.036115
v 2.251204 0.300000 1.504206
v 1.914492 0.300000 1.914492
v 1.504206 0.300000 2.251204
v 1.036115 0.300000 2.501404
v 0.528207 0.300000 2.655476
v 0.000000 0.300000 2.707500
v -0.528207 0.300000 2.655476
v -1.036115 0.300000 2.501404
v -1.504206 0.300000 2.251204
v -1.914492 0.300000 1.914492
v -2.251204 0.300000 1.504206
v -2.501404 0.300000 1.036115
v -2.655476 0.300000 0.528207
v -2.707500 0.300000 -0.000000
v -2.655476 0.300000 -0.528207
v -2.501404 0.300000 -1.036116
v -2.251204 0.300000 -1.504206
v -1.914492 0.300000 -1.914492
v -1.504206 0.300000 -2.251204
v -1.036115 0.300000 -2.501404
v -0.528207 0.300000 -2.655476
v 0.528207 0.500000 -2.655476
v 0.000000 0.500000 -2.707500
v 1.036115 0.500000 -2.501404
v 1.504206 0.500000 -2.251204
v 1.914492 0.500000 -1.914492
v 2.251204 0.500000 -1.504206
v 2.501404 0.500000 -1.036116
v 2.655476 0.500000 -0.528207
v 2.707500 0.500000 -0.000000
v 2.655476 0.500000 0.528207
v 2.501404 0.500000 1.036115
v 2.251204 0.500000 1.504206
v 1.914492 0.500000 1.914492
v 1.504206 0.500000 2.251204
v 1.036115 0.500000 2.501404
v 0.528207 0.500000 2.655476
v 0.000000 0.500000 2.707500
v -0.528207 0.500000 2.655476
v -1.036115 0.500000 2.501404
v -1.504206 0.500000 2.251204
v -1.914492 0.500000 1.914492
v -2.251204 0.500000 1.504206
v -2.501404 0.500000 1.036115
v -2.655476 0.500000 0.528207
v -2.707500 0.500000 -0.000000
v -2.655476 0.500000 -0.528207
v -2.501404 0.500000 -1.036116
v -2.251204 0.500000 -1.504206
v -1.914492 0.500000 -1.914492
v -1.504206 0.500000 -2.251204
v -1.036115 0.500000 -2.501404
v -0.528207 0.500000 -2.655476
v 0.501797 0.500000 -2.522702
v 0.000000 0.500000 -2.572125
v 0.984310 0.500000 -2.376333
v 1.428996 0.500000 -2.138644
v 1.818767 0.500000 -1.818767
v 2.138644 0.500000 -1.428996
v 2.376333 0.500000 -0.984310
v 2.522702 0.500000 -0.501797
v 2.572125 0.500000 -0.000000
v 2.522702 0.500000 0.501797
v 2.376333 0.500000 0.984309
v 2.138644 0.500000 1.428996
v 1.818767 0.500000 1.818767
v 1.428996 0.500000 2.138644
v 0.984310 0.500000 2.376333
v 0.501797 0.500000 2.522702
v 0.000000 0.500000 2.572125
v -0.501797 0.500000 2.522702
v -0.984310 0.500000 2.376333
v -1.428996 0.500000 2.138644
v -1.818767 0.500000 1.818767
v -2.138644 0.500000 1.428996
v -2.376333 0.500000 0.984309
v -2.522702 0.500000 0.501797
v -2.572125 0.500000 -0.000000
v -2.522702 0.500000 -0.501797
v -2.376333 0.500000 -0.984310
v -2.138644 0.500000 -1.428996
v -1.818767 0.500000 -1.818767
v -1.428996 0.500000 -2.138644
v -0.984310 0.500000 -2.376333
v -0.501797 0.500000 -2.522702
v 0.501797 0.441093 -2.522702
v 0.000000 0.441093 -2.572125
v 0.984310 0.441093 -2.376333
v 1.428996 0.441093 -2.138644
v 1.818767 0.441093 -1.818767
v 2.138644 0.441093 -1.428996
v 2.376333 0.441093 -0.984310
v 2.522702 0.441093 -0.501797
v 2.572125 0.441093 -0.000000
v 2.522702 0.441093 0.501797
v 2.376333 0.441093 0.984309
v 2.138644 0.441093 1.428996
v 1.818767 0.441093 1.818767
v 1.428996 0.441093 2.138644
v 0.984310 0.441093 2.376333
v 0.501797 0.441093 2.522702
v 0.000000 0.441093 2.572125
v -0.501797 0.441093 2.522702
v -0.984310 0.441093 2.376333
v -1.428996 0.441093 2.138644
v -1.818767 0.441093 1.818767
v -2.138644 0.441093 1.428996
v -2.376333 0.441093 0.984309
v -2.522702 0.441093 0.501797
v -2.572125 0.441093 -0.000000
v -2.522702 0.441093 -0.501797
v -2.376333 0.441093 -0.984310
v -2.138644 0.441093 -1.428996
v -1.818767 0.441093 -1.818767
v -1.428996 0.441093 -2.138644
v -0.984310 0.441093 -2.376333
v -0.501797 0.441093 -2.522702
vn 0.0980 -0.0000 -0.9952
vn 0.2903 -0.0000 -0.9569
vn 0.4714 -0.0000 -0.8819
vn 0.6344 -0.0000 -0.7730
vn 0.7730 -0.0000 -0.6344
vn 0.8819 -0.0000 -0.4714
vn 0.9569 -0.0000 -0.2903
vn 0.9952 -0.0000 -0.0980
vn 0.9952 -0.0000 0.0980
vn 0.9569 -0.0000 0.2903
vn 0.8819 -0.0000 0.4714
vn 0.7730 -0.0000 0.6344
vn 0.6344 -0.0000 0.7730
vn 0.4714 -0.0000 0.8819
vn 0.2903 -0.0000 0.9569
vn 0.0980 -0.0000 0.9952
vn -0.0980 -0.0000 0.9952
vn -0.2903 -0.0000 0.9569
vn -0.4714 -0.0000 0.8819
vn -0.6344 -0.0000 0.7730
vn -0.7730 -0.0000 0.6344
vn -0.8819 -0.0000 0.4714
vn -0.9569 -0.0000 0.2903
vn -0.9952 -0.0000 0.0980
vn -0.9952 -0.0000 -0.0980
vn -0.9569 -0.0000 -0.2903
vn -0.8819 -0.0000 -0.4714
vn -0.7730 -0.0000 -0.6344
vn -0.6344 -0.0000 -0.7730
vn -0.4714 -0.0000 -0.8819
vn -0.0000 1.0000 -0.0000
vn -0.2903 -0.0000 -0.9569
vn -0.0980 -0.0000 -0.9952
vn -0.0000 -1.0000 -0.0000
vt 0.603353 0.153108
s 0
f 1/1/1 2/1/1 4/1/1 3/1/1
f 3/1/2 4/1/2 6/1/2 5/1/2
f 5/1/3 6/1/3 8/1/3 7/1/3
f 7/1/4 8/1/4 10/1/4 9/1/4
f 9/1/5 10/1/5 12/1/5 11/1/5
f 11/1/6 12/1/6 14/1/6 13/1/6
f 13/1/7 14/1/7 16/1/7 15/1/7
f 15/1/8 16/1/8 18/1/8 17/1/8
f 17/1/9 18/1/9 20/1/9 19/1/9
f 19/1/10 20/1/10 22/1/10 21/1/10
f 21/1/11 22/1/11 24/1/11 23/1/11
f 23/1/12 24/1/12 26/1/12 25/1/12
f 25/1/13 26/1/13 28/1/13 27/1/13
f 27/1/14 28/1/14 30/1/14 29/1/14
f 29/1/15 30/1/15 32/1/15 31/1/15
f 31/1/16 32/1/16 34/1/16 33/1/16
f 33/1/17 34/1/17 36/1/17 35/1/17
f 35/1/18 36/1/18 38/1/18 37/1/18
f 37/1/19 38/1/19 40/1/19 39/1/19
f 39/1/20 40/1/20 42/1/20 41/1/20
f 41/1/21 42/1/21 44/1/21 43/1/21
f 43/1/22 44/1/22 46/1/22 45/1/22
f 45/1/23 46/1/23 48/1/23 47/1/23
f 47/1/24 48/1/24 50/1/24 49/1/24
f 49/1/25 50/1/25 52/1/25 51/1/25
f 51/1/26 52/1/26 54/1/26 53/1/26
f 53/1/27 54/1/27 56/1/27 55/1/27
f 55/1/28 56/1/28 58/1/28 57/1/28
f 57/1/29 58/1/29 60/1/29 59/1/29
f 59/1/30 60/1/30 62/1/30 61/1/30
f 20/1/31 18/1/31 73/1/31 74/1/31
f 61/1/32 62/1/32 64/1/32 63/1/32
f 63/1/33 64/1/33 2/1/33 1/1/33
f 1/1/34 3/1/34 5/1/34 7/1/34 9/1/34 11/1/34 13/1/34 15/1/34 17/1/34 19/1/34 21/1/34 23/1/34 25/1/34 27/1/34 29/1/34 31/1/34 33/1/34 35/1/34 37/1/34 39/1/34 41/1/34 43/1/34 45/1/34 47/1/34 49/1/34 51/1/34 53/1/34 55/1/34 57/1/34 59/1/34 61/1/34 63/1/34
f 76/1/31 75/1/31 107/1/31 108/1/31
f 38/1/31 36/1/31 82/1/31 83/1/31
f 56/1/31 54/1/31 91/1/31 92/1/31
f 12/1/31 10/1/31 69/1/31 70/1/31
f 30/1/31 28/1/31 78/1/31 79/1/31
f 48/1/31 46/1/31 87/1/31 88/1/31
f 4/1/31 2/1/31 66/1/31 65/1/31
f 2/1/31 64/1/31 96/1/31 66/1/31
f 22/1/31 20/1/31 74/1/31 75/1/31
f 40/1/31 38/1/31 83/1/31 84/1/31
f 58/1/31 56/1/31 92/1/31 93/1/31
f 14/1/31 12/1/31 70/1/31 71/1/31
f 32/1/31 30/1/31 79/1/31 80/1/31
f 50/1/31 48/1/31 88/1/31 89/1/31
f 6/1/31 4/1/31 65/1/31 67/1/31
f 24/1/31 22/1/31 75/1/31 76/1/31
f 42/1/31 40/1/31 84/1/31 85/1/31
f 60/1/31 58/1/31 93/1/31 94/1/31
f 16/1/31 14/1/31 71/1/31 72/1/31
f 34/1/31 32/1/31 80/1/31 81/1/31
f 52/1/31 50/1/31 89/1/31 90/1/31
f 8/1/31 6/1/31 67/1/31 68/1/31
f 26/1/31 24/1/31 76/1/31 77/1/31
f 44/1/31 42/1/31 85/1/31 86/1/31
f 62/1/31 60/1/31 94/1/31 95/1/31
f 18/1/31 16/1/31 72/1/31 73/1/31
f 36/1/31 34/1/31 81/1/31 82/1/31
f 54/1/31 52/1/31 90/1/31 91/1/31
f 10/1/31 8/1/31 68/1/31 69/1/31
f 28/1/31 26/1/31 77/1/31 78/1/31
f 46/1/31 44/1/31 86/1/31 87/1/31
f 64/1/31 62/1/31 95/1/31 96/1/31
f 111/1/14 110/1/14 142/1/14 143/1/14
f 90/1/31 89/1/31 121/1/31 122/1/31
f 77/1/31 76/1/31 108/1/31 109/1/31
f 91/1/31 90/1/31 122/1/31 123/1/31
f 78/1/31 77/1/31 109/1/31 110/1/31
f 92/1/31 91/1/31 123/1/31 124/1/31
f 79/1/31 78/1/31 110/1/31 111/1/31
f 65/1/31 66/1/31 98/1/31 97/1/31
f 93/1/31 92/1/31 124/1/31 125/1/31
f 80/1/31 79/1/31 111/1/31 112/1/31
f 67/1/31 65/1/31 97/1/31 99/1/31
f 94/1/31 93/1/31 125/1/31 126/1/31
f 81/1/31 80/1/31 112/1/31 113/1/31
f 68/1/31 67/1/31 99/1/31 100/1/31
f 95/1/31 94/1/31 126/1/31 127/1/31
f 82/1/31 81/1/31 113/1/31 114/1/31
f 69/1/31 68/1/31 100/1/31 101/1/31
f 96/1/31 95/1/31 127/1/31 128/1/31
f 83/1/31 82/1/31 114/1/31 115/1/31
f 70/1/31 69/1/31 101/1/31 102/1/31
f 66/1/31 96/1/31 128/1/31 98/1/31
f 84/1/31 83/1/31 115/1/31 116/1/31
f 71/1/31 70/1/31 102/1/31 103/1/31
f 85/1/31 84/1/31 116/1/31 117/1/31
f 72/1/31 71/1/31 103/1/31 104/1/31
f 86/1/31 85/1/31 117/1/31 118/1/31
f 73/1/31 72/1/31 104/1/31 105/1/31
f 87/1/31 86/1/31 118/1/31 119/1/31
f 74/1/31 73/1/31 105/1/31 106/1/31
f 88/1/31 87/1/31 119/1/31 120/1/31
f 75/1/31 74/1/31 106/1/31 107/1/31
f 89/1/31 88/1/31 120/1/31 121/1/31
f 146/1/31 145/1/31 177/1/31 178/1/31
f 97/1/1 98/1/1 130/1/1 129/1/1
f 125/1/28 124/1/28 156/1/28 157/1/28
f 112/1/15 111/1/15 143/1/15 144/1/15
f 99/1/2 97/1/2 129/1/2 131/1/2
f 126/1/29 125/1/29 157/1/29 158/1/29
f 113/1/16 112/1/16 144/1/16 145/1/16
f 100/1/3 99/1/3 131/1/3 132/1/3
f 127/1/30 126/1/30 158/1/30 159/1/30
f 114/1/17 113/1/17 145/1/17 146/1/17
f 101/1/4 100/1/4 132/1/4 133/1/4
f 128/1/32 127/1/32 159/1/32 160/1/32
f 115/1/18 114/1/18 146/1/18 147/1/18
f 102/1/5 101/1/5 133/1/5 134/1/5
f 98/1/33 128/1/33 160/1/33 130/1/33
f 116/1/19 115/1/19 147/1/19 148/1/19
f 103/1/6 102/1/6 134/1/6 135/1/6
f 117/1/20 116/1/20 148/1/20 149/1/20
f 104/1/7 103/1/7 135/1/7 136/1/7
f 118/1/21 117/1/21 149/1/21 150/1/21
f 105/1/8 104/1/8 136/1/8 137/1/8
f 119/1/22 118/1/22 150/1/22 151/1/22
f 106/1/9 105/1/9 137/1/9 138/1/9
f 120/1/23 119/1/23 151/1/23 152/1/23
f 107/1/10 106/1/10 138/1/10 139/1/10
f 121/1/24 120/1/24 152/1/24 153/1/24
f 108/1/11 107/1/11 139/1/11 140/1/11
f 122/1/25 121/1/25 153/1/25 154/1/25
f 109/1/12 108/1/12 140/1/12 141/1/12
f 123/1/26 122/1/26 154/1/26 155/1/26
f 110/1/13 109/1/13 141/1/13 142/1/13
f 124/1/27 123/1/27 155/1/27 156/1/27
f 181/1/20 180/1/20 212/1/20 213/1/20
f 133/1/31 132/1/31 164/1/31 165/1/31
f 160/1/31 159/1/31 191/1/31 192/1/31
f 147/1/31 146/1/31 178/1/31 179/1/31
f 134/1/31 133/1/31 165/1/31 166/1/31
f 130/1/31 160/1/31 192/1/31 162/1/31
f 148/1/31 147/1/31 179/1/31 180/1/31
f 135/1/31 134/1/31 166/1/31 167/1/31
f 149/1/31 148/1/31 180/1/31 181/1/31
f 136/1/31 135/1/31 167/1/31 168/1/31
f 150/1/31 149/1/31 181/1/31 182/1/31
f 137/1/31 136/1/31 168/1/31 169/1/31
f 151/1/31 150/1/31 182/1/31 183/1/31
f 138/1/31 137/1/31 169/1/31 170/1/31
f 152/1/31 151/1/31 183/1/31 184/1/31
f 139/1/31 138/1/31 170/1/31 171/1/31
f 153/1/31 152/1/31 184/1/31 185/1/31
f 140/1/31 139/1/31 171/1/31 172/1/31
f 154/1/31 153/1/31 185/1/31 186/1/31
f 141/1/31 140/1/31 172/1/31 173/1/31
f 155/1/31 154/1/31 186/1/31 187/1/31
f 142/1/31 141/1/31 173/1/31 174/1/31
f 156/1/31 155/1/31 187/1/31 188/1/31
f 143/1/31 142/1/31 174/1/31 175/1/31
f 129/1/31 130/1/31 162/1/31 161/1/31
f 157/1/31 156/1/31 188/1/31 189/1/31
f 144/1/31 143/1/31 175/1/31 176/1/31
f 131/1/31 129/1/31 161/1/31 163/1/31
f 158/1/31 157/1/31 189/1/31 190/1/31
f 145/1/31 144/1/31 176/1/31 177/1/31
f 132/1/31 131/1/31 163/1/31 164/1/31
f 159/1/31 158/1/31 190/1/31 191/1/31
f 216/1/31 215/1/31 247/1/31 248/1/31
f 168/1/7 167/1/7 199/1/7 200/1/7
f 182/1/21 181/1/21 213/1/21 214/1/21
f 169/1/8 168/1/8 200/1/8 201/1/8
f 183/1/22 182/1/22 214/1/22 215/1/22
f 170/1/9 169/1/9 201/1/9 202/1/9
f 184/1/23 183/1/23 215/1/23 216/1/23
f 171/1/10 170/1/10 202/1/10 203/1/10
f 185/1/24 184/1/24 216/1/24 217/1/24
f 172/1/11 171/1/11 203/1/11 204/1/11
f 186/1/25 185/1/25 217/1/25 218/1/25
f 173/1/12 172/1/12 204/1/12 205/1/12
f 187/1/26 186/1/26 218/1/26 219/1/26
f 174/1/13 173/1/13 205/1/13 206/1/13
f 188/1/27 187/1/27 219/1/27 220/1/27
f 175/1/14 174/1/14 206/1/14 207/1/14
f 161/1/1 162/1/1 194/1/1 193/1/1
f 189/1/28 188/1/28 220/1/28 221/1/28
f 176/1/15 175/1/15 207/1/15 208/1/15
f 163/1/2 161/1/2 193/1/2 195/1/2
f 190/1/29 189/1/29 221/1/29 222/1/29
f 177/1/16 176/1/16 208/1/16 209/1/16
f 164/1/3 163/1/3 195/1/3 196/1/3
f 191/1/30 190/1/30 222/1/30 223/1/30
f 178/1/17 177/1/17 209/1/17 210/1/17
f 165/1/4 164/1/4 196/1/4 197/1/4
f 192/1/32 191/1/32 223/1/32 224/1/32
f 179/1/18 178/1/18 210/1/18 211/1/18
f 166/1/5 165/1/5 197/1/5 198/1/5
f 162/1/33 192/1/33 224/1/33 194/1/33
f 180/1/19 179/1/19 211/1/19 212/1/19
f 167/1/6 166/1/6 198/1/6 199/1/6
f 251/1/10 250/1/10 282/1/10 283/1/10
f 203/1/31 202/1/31 234/1/31 235/1/31
f 217/1/31 216/1/31 248/1/31 249/1/31
f 204/1/31 203/1/31 235/1/31 236/1/31
f 218/1/31 217/1/31 249/1/31 250/1/31
f 205/1/31 204/1/31 236/1/31 237/1/31
f 219/1/31 218/1/31 250/1/31 251/1/31
f 206/1/31 205/1/31 237/1/31 238/1/31
f 220/1/31 219/1/31 251/1/31 252/1/31
f 207/1/31 206/1/31 238/1/31 239/1/31
f 193/1/31 194/1/31 226/1/31 225/1/31
f 221/1/31 220/1/31 252/1/31 253/1/31
f 208/1/31 207/1/31 239/1/31 240/1/31
f 195/1/31 193/1/31 225/1/31 227/1/31
f 222/1/31 221/1/31 253/1/31 254/1/31
f 209/1/31 208/1/31 240/1/31 241/1/31
f 196/1/31 195/1/31 227/1/31 228/1/31
f 223/1/31 222/1/31 254/1/31 255/1/31
f 210/1/31 209/1/31 241/1/31 242/1/31
f 197/1/31 196/1/31 228/1/31 229/1/31
f 224/1/31 223/1/31 255/1/31 256/1/31
f 211/1/31 210/1/31 242/1/31 243/1/31
f 198/1/31 197/1/31 229/1/31 230/1/31
f 194/1/31 224/1/31 256/1/31 226/1/31
f 212/1/31 211/1/31 243/1/31 244/1/31
f 199/1/31 198/1/31 230/1/31 231/1/31
f 213/1/31 212/1/31 244/1/31 245/1/31
f 200/1/31 199/1/31 231/1/31 232/1/31
f 214/1/31 213/1/31 245/1/31 246/1/31
f 201/1/31 200/1/31 232/1/31 233/1/31
f 215/1/31 214/1/31 246/1/31 247/1/31
f 202/1/31 201/1/31 233/1/31 234/1/31
f 257/1/31 258/1/31 288/1/31 287/1/31 286/1/31 285/1/31 284/1/31 283/1/31 282/1/31 281/1/31 280/1/31 279/1/31 278/1/31 277/1/31 276/1/31 275/1/31 274/1/31 273/1/31 272/1/31 271/1/31 270/1/31 269/1/31 268/1/31 267/1/31 266/1/31 265/1/31 264/1/31 263/1/31 262/1/31 261/1/31 260/1/31 259/1/31
f 238/1/29 237/1/29 269/1/29 270/1/29
f 252/1/11 251/1/11 283/1/11 284/1/11
f 239/1/30 238/1/30 270/1/30 271/1/30
f 225/1/17 226/1/17 258/1/17 257/1/17
f 253/1/12 252/1/12 284/1/12 285/1/12
f 240/1/32 239/1/32 271/1/32 272/1/32
f 227/1/18 225/1/18 257/1/18 259/1/18
f 254/1/13 253/1/13 285/1/13 286/1/13
f 241/1/33 240/1/33 272/1/33 273/1/33
f 228/1/19 227/1/19 259/1/19 260/1/19
f 255/1/14 254/1/14 286/1/14 287/1/14
f 242/1/1 241/1/1 273/1/1 274/1/1
f 229/1/20 228/1/20 260/1/20 261/1/20
f 256/1/15 255/1/15 287/1/15 288/1/15
f 243/1/2 242/1/2 274/1/2 275/1/2
f 230/1/21 229/1/21 261/1/21 262/1/21
f 226/1/16 256/1/16 288/1/16 258/1/16
f 244/1/3 243/1/3 275/1/3 276/1/3
f 231/1/22 230/1/22 262/1/22 263/1/22
f 245/1/4 244/1/4 276/1/4 277/1/4
f 232/1/23 231/1/23 263/1/23 264/1/23
f 246/1/5 245/1/5 277/1/5 278/1/5
f 233/1/24 232/1/24 264/1/24 265/1/24
f 247/1/6 246/1/6 278/1/6 279/1/6
f 234/1/25 233/1/25 265/1/25 266/1/25
f 248/1/7 247/1/7 279/1/7 280/1/7
f 235/1/26 234/1/26 266/1/26 267/1/26
f 249/1/8 248/1/8 280/1/8 281/1/8
f 236/1/27 235/1/27 267/1/27 268/1/27
f 250/1/9 249/1/9 281/1/9 282/1/9
f 237/1/28 236/1/28 268/1/28 269/1/28
