# Blender 4.1.0
# www.blender.org
o Cube.001
v -0.500000 -0.100000 0.500000
v -0.500000 0.100000 0.500000
v -0.500000 -0.100000 -0.500000
v -0.500000 0.100000 -0.500000
v 0.500000 -0.100000 0.500000
v 0.500000 0.100000 0.500000
v 0.500000 -0.100000 -0.500000
v 0.500000 0.100000 -0.500000
v -0.350000 0.200000 0.350000
v -0.350000 0.200000 -0.350000
v 0.350000 0.200000 -0.350000
v 0.350000 0.200000 0.350000
v -0.350000 0.500000 0.350000
v -0.350000 0.500000 -0.350000
v 0.350000 0.500000 -0.350000
v 0.350000 0.500000 0.350000
v -0.280000 0.500000 0.280000
v -0.280000 0.500000 -0.280000
v 0.280000 0.500000 -0.280000
v 0.280000 0.500000 0.280000
v -0.280000 1.500000 0.280000
v -0.280000 1.500000 -0.280000
v 0.280000 1.500000 -0.280000
v 0.280000 1.500000 0.280000
v -0.280000 1.500000 0.280000
v -0.280000 1.500000 -0.280000
v 0.280000 1.500000 -0.280000
v 0.280000 1.500000 0.280000
v -0.252000 1.600000 0.252000
v -0.252000 1.600000 -0.252000
v 0.252000 1.600000 -0.252000
v 0.252000 1.600000 0.252000
v -0.277200 1.700000 0.277200
v -0.277200 1.700000 -0.277200
v 0.277200 1.700000 -0.277200
v 0.277200 1.700000 0.277200
v -0.277200 2.400000 0.277200
v -0.277200 2.400000 -0.277200
v 0.277200 2.400000 -0.277200
v 0.277200 2.400000 0.277200
v -0.277200 2.400000 0.277200
v -0.277200 2.400000 -0.277200
v 0.277200 2.400000 -0.277200
v 0.277200 2.400000 0.277200
v -0.249480 2.500000 0.249480
v -0.249480 2.500000 -0.249480
v 0.249480 2.500000 -0.249480
v 0.249480 2.500000 0.249480
v -0.274428 2.600000 0.274428
v -0.274428 2.600000 -0.274428
v 0.274428 2.600000 -0.274428
v 0.274428 2.600000 0.274428
v -0.274428 3.600000 0.274428
v -0.274428 3.600000 -0.274428
v 0.274428 3.600000 -0.274428
v 0.274428 3.600000 0.274428
v -0.356756 3.600000 0.356756
v -0.356756 3.600000 -0.356756
v 0.356756 3.600000 -0.356756
v 0.356756 3.600000 0.356756
v -0.356756 3.900000 0.356756
v -0.356756 3.900000 -0.356756
v 0.356756 3.900000 -0.356756
v 0.356756 3.900000 0.356756
v -0.499459 4.000000 0.499459
v -0.499459 4.000000 -0.499459
v 0.499459 4.000000 -0.499459
v 0.499459 4.000000 0.499459
v -0.499459 4.200000 0.499459
v -0.499459 4.200000 -0.499459
v 0.499459 4.200000 -0.499459
v 0.499459 4.200000 0.499459
vn -1.0000 -0.0000 -0.0000
vn -0.0000 -0.0000 -1.0000
vn 1.0000 -0.0000 -0.0000
vn -0.0000 -0.0000 1.0000
vn -0.0000 -1.0000 -0.0000
vn 0.5547 0.8321 -0.0000
vn -0.5547 0.8321 -0.0000
vn -0.0000 0.8321 0.5547
vn -0.0000 0.8321 -0.5547
vn -0.0000 1.0000 -0.0000
vn 0.9630 0.2696 -0.0000
vn 0.9697 -0.2444 -0.0000
vn -0.9630 0.2696 -0.0000
vn -0.0000 0.2696 0.9630
vn -0.0000 0.2696 -0.9630
vn -0.9697 -0.2444 -0.0000
vn -0.0000 -0.2444 0.9697
vn -0.0000 -0.2444 -0.9697
vn -0.9637 0.2671 -0.0000
vn -0.0000 -0.2421 0.9703
vn -0.0000 0.2671 0.9637
vn -0.0000 0.2671 -0.9637
vn 0.9637 0.2671 -0.0000
vn -0.0000 -0.2421 -0.9703
vn 0.9703 -0.2421 -0.0000
vn -0.9703 -0.2421 -0.0000
vn 0.5739 -0.8189 -0.0000
vn -0.5739 -0.8189 -0.0000
vn -0.0000 -0.8189 0.5739
vn -0.0000 -0.8189 -0.5739
vt 0.593510 0.153030
s 0
f 1/1/1 2/1/1 4/1/1 3/1/1
f 3/1/2 4/1/2 8/1/2 7/1/2
f 7/1/3 8/1/3 6/1/3 5/1/3
f 5/1/4 6/1/4 2/1/4 1/1/4
f 3/1/5 7/1/5 5/1/5 1/1/5
f 6/1/6 8/1/6 11/1/6 12/1/6
f 9/1/4 12/1/4 16/1/4 13/1/4
f 4/1/7 2/1/7 9/1/7 10/1/7
f 2/1/8 6/1/8 12/1/8 9/1/8
f 8/1/9 4/1/9 10/1/9 11/1/9
f 15/1/10 14/1/10 18/1/10 19/1/10
f 11/1/2 10/1/2 14/1/2 15/1/2
f 12/1/3 11/1/3 15/1/3 16/1/3
f 10/1/1 9/1/1 13/1/1 14/1/1
f 20/1/3 19/1/3 23/1/3 24/1/3
f 16/1/10 15/1/10 19/1/10 20/1/10
f 14/1/10 13/1/10 17/1/10 18/1/10
f 13/1/10 16/1/10 20/1/10 17/1/10
f 21/1/10 24/1/10 28/1/10 25/1/10
f 18/1/1 17/1/1 21/1/1 22/1/1
f 17/1/4 20/1/4 24/1/4 21/1/4
f 19/1/2 18/1/2 22/1/2 23/1/2
f 28/1/11 27/1/11 31/1/11 32/1/11
f 23/1/10 22/1/10 26/1/10 27/1/10
f 24/1/10 23/1/10 27/1/10 28/1/10
f 22/1/10 21/1/10 25/1/10 26/1/10
f 32/1/12 31/1/12 35/1/12 36/1/12
f 26/1/13 25/1/13 29/1/13 30/1/13
f 25/1/14 28/1/14 32/1/14 29/1/14
f 27/1/15 26/1/15 30/1/15 31/1/15
f 33/1/4 36/1/4 40/1/4 37/1/4
f 30/1/16 29/1/16 33/1/16 34/1/16
f 29/1/17 32/1/17 36/1/17 33/1/17
f 31/1/18 30/1/18 34/1/18 35/1/18
f 40/1/10 39/1/10 43/1/10 44/1/10
f 35/1/2 34/1/2 38/1/2 39/1/2
f 36/1/3 35/1/3 39/1/3 40/1/3
f 34/1/1 33/1/1 37/1/1 38/1/1
f 42/1/19 41/1/19 45/1/19 46/1/19
f 38/1/10 37/1/10 41/1/10 42/1/10
f 37/1/10 40/1/10 44/1/10 41/1/10
f 39/1/10 38/1/10 42/1/10 43/1/10
f 45/1/20 48/1/20 52/1/20 49/1/20
f 41/1/21 44/1/21 48/1/21 45/1/21
f 43/1/22 42/1/22 46/1/22 47/1/22
f 44/1/23 43/1/23 47/1/23 48/1/23
f 52/1/3 51/1/3 55/1/3 56/1/3
f 47/1/24 46/1/24 50/1/24 51/1/24
f 48/1/25 47/1/25 51/1/25 52/1/25
f 46/1/26 45/1/26 49/1/26 50/1/26
f 53/1/5 56/1/5 60/1/5 57/1/5
f 50/1/1 49/1/1 53/1/1 54/1/1
f 49/1/4 52/1/4 56/1/4 53/1/4
f 51/1/2 50/1/2 54/1/2 55/1/2
f 59/1/2 58/1/2 62/1/2 63/1/2
f 55/1/5 54/1/5 58/1/5 59/1/5
f 56/1/5 55/1/5 59/1/5 60/1/5
f 54/1/5 53/1/5 57/1/5 58/1/5
f 64/1/27 63/1/27 67/1/27 68/1/27
f 60/1/3 59/1/3 63/1/3 64/1/3
f 58/1/1 57/1/1 61/1/1 62/1/1
f 57/1/4 60/1/4 64/1/4 61/1/4
f 67/1/2 66/1/2 70/1/2 71/1/2
f 62/1/28 61/1/28 65/1/28 66/1/28
f 61/1/29 64/1/29 68/1/29 65/1/29
f 63/1/30 62/1/30 66/1/30 67/1/30
f 71/1/10 70/1/10 69/1/10 72/1/10
f 68/1/3 67/1/3 71/1/3 72/1/3
f 66/1/1 65/1/1 69/1/1 70/1/1
f 65/1/4 68/1/4 72/1/4 69/1/4
