# Blender 4.1.0
# www.blender.org
o Cube.002
v -0.500000 -0.100000 0.500000
v -0.500000 0.100000 0.500000
v -0.500000 -0.100000 -0.500000
v -0.500000 0.100000 -0.500000
v 0.500000 -0.100000 0.500000
v 0.500000 0.100000 0.500000
v 0.500000 -0.100000 -0.500000
v 0.500000 0.100000 -0.500000
v -0.350000 0.200000 0.350000
v -0.350000 0.200000 -0.350000
v 0.350000 0.200000 -0.350000
v 0.350000 0.200000 0.350000
v -0.350000 0.500000 0.350000
v -0.350000 0.500000 -0.350000
v 0.350000 0.500000 -0.350000
v 0.350000 0.500000 0.350000
v -0.280000 0.500000 0.280000
v -0.280000 0.500000 -0.280000
v 0.280000 0.500000 -0.280000
v 0.280000 0.500000 0.280000
v -0.280000 1.500000 0.280000
v -0.280000 1.500000 -0.280000
v 0.280000 1.500000 -0.280000
v 0.280000 1.500000 0.280000
v -0.252000 1.600000 0.252000
v -0.252000 1.600000 -0.252000
v 0.252000 1.600000 -0.252000
v 0.252000 1.600000 0.252000
v -0.277200 1.700000 0.277200
v -0.277200 1.700000 -0.277200
v 0.277200 1.700000 -0.277200
v 0.277200 1.700000 0.277200
v -0.277200 2.400000 0.277200
v -0.277200 2.400000 -0.277200
v 0.277200 2.400000 -0.277200
v 0.277200 2.400000 0.277200
v -0.249480 2.500000 0.249480
v -0.249480 2.500000 -0.249480
v 0.249480 2.500000 -0.249480
v 0.249480 2.500000 0.249480
v -0.274428 2.600000 0.274428
v -0.274428 2.600000 -0.274428
v 0.274428 2.600000 -0.274428
v 0.274428 2.600000 0.274428
v 0.274428 2.933150 -0.274428
v 0.274428 2.933077 0.274428
v -0.274428 2.785283 0.274428
v -0.274428 2.785356 -0.274428
vn -1.0000 -0.0000 -0.0000
vn -0.0000 -0.0000 -1.0000
vn 1.0000 -0.0000 -0.0000
vn -0.0000 -0.0000 1.0000
vn -0.0000 -1.0000 -0.0000
vn 0.5547 0.8321 -0.0000
vn -0.5547 0.8321 -0.0000
vn -0.0000 0.8321 0.5547
vn -0.0000 0.8321 -0.5547
vn -0.0000 1.0000 -0.0000
vn 0.9630 0.2696 -0.0000
vn 0.9697 -0.2444 -0.0000
vn -0.9630 0.2696 -0.0000
vn -0.0000 0.2696 0.9630
vn -0.0000 0.2696 -0.9630
vn -0.9697 -0.2444 -0.0000
vn -0.0000 -0.2444 0.9697
vn -0.0000 -0.2444 -0.9697
vn -0.9637 0.2671 -0.0000
vn -0.0000 -0.2421 0.9703
vn -0.0000 0.2671 0.9637
vn -0.0000 0.2671 -0.9637
vn 0.9637 0.2671 -0.0000
vn -0.0000 -0.2421 -0.9703
vn 0.9703 -0.2421 -0.0000
vn -0.9703 -0.2421 -0.0000
vn -0.2600 0.9656 0.0001
vt 0.593510 0.153030
vt 0.593032 0.153862
s 0
f 1/1/1 2/1/1 4/1/1 3/1/1
f 3/1/2 4/1/2 8/1/2 7/1/2
f 7/1/3 8/1/3 6/1/3 5/1/3
f 5/1/4 6/1/4 2/1/4 1/1/4
f 3/1/5 7/1/5 5/1/5 1/1/5
f 6/1/6 8/1/6 11/1/6 12/1/6
f 9/1/4 12/1/4 16/1/4 13/1/4
f 4/1/7 2/1/7 9/1/7 10/1/7
f 2/1/8 6/1/8 12/1/8 9/1/8
f 8/1/9 4/1/9 10/1/9 11/1/9
f 15/1/10 14/1/10 18/1/10 19/1/10
f 11/1/2 10/1/2 14/1/2 15/1/2
f 12/1/3 11/1/3 15/1/3 16/1/3
f 10/1/1 9/1/1 13/1/1 14/1/1
f 20/1/3 19/1/3 23/1/3 24/1/3
f 16/1/10 15/1/10 19/1/10 20/1/10
f 14/1/10 13/1/10 17/1/10 18/1/10
f 13/1/10 16/1/10 20/1/10 17/1/10
f 18/1/1 17/1/1 21/1/1 22/1/1
f 17/1/4 20/1/4 24/1/4 21/1/4
f 19/1/2 18/1/2 22/1/2 23/1/2
f 24/1/11 23/1/11 27/1/11 28/1/11
f 28/1/12 27/1/12 31/1/12 32/1/12
f 22/1/13 21/1/13 25/1/13 26/1/13
f 21/1/14 24/1/14 28/1/14 25/1/14
f 23/1/15 22/1/15 26/1/15 27/1/15
f 29/1/4 32/1/4 36/1/4 33/1/4
f 26/1/16 25/1/16 29/1/16 30/1/16
f 25/1/17 28/1/17 32/1/17 29/1/17
f 27/1/18 26/1/18 30/1/18 31/1/18
f 31/1/2 30/1/2 34/1/2 35/1/2
f 32/1/3 31/1/3 35/1/3 36/1/3
f 30/1/1 29/1/1 33/1/1 34/1/1
f 34/1/19 33/1/19 37/1/19 38/1/19
f 37/1/20 40/1/20 44/1/20 41/1/20
f 33/1/21 36/1/21 40/1/21 37/1/21
f 35/1/22 34/1/22 38/1/22 39/1/22
f 36/1/23 35/1/23 39/1/23 40/1/23
f 46/1/3 44/1/3 43/1/3 45/1/3
f 39/1/24 38/1/24 42/1/24 43/1/24
f 40/1/25 39/1/25 43/1/25 44/1/25
f 38/1/26 37/1/26 41/1/26 42/1/26
f 42/1/1 41/1/1 47/1/1 48/1/1
f 47/1/4 41/1/4 44/1/4 46/1/4
f 43/1/2 42/1/2 48/1/2 45/1/2
f 48/2/27 47/2/27 46/2/27 45/2/27
