# Blender 4.1.0
# www.blender.org
o Hot_Rock
v 0.103303 -0.235039 -0.214377
v 0.403291 0.052839 0.207520
v -0.102889 0.040431 0.434461
v -0.628573 0.066075 -0.160694
v -0.192584 0.026288 -0.614319
v 0.486474 0.023824 -0.483643
v 0.173499 0.487651 0.434461
v -0.478945 0.500218 0.181387
v -0.543163 0.513293 -0.423557
v 0.241496 0.488572 -0.639702
v 0.502573 0.527897 -0.200010
v 0.065470 0.766048 -0.179272
v -0.039271 -0.147937 0.189763
v 0.293957 -0.163458 0.022479
v 0.167634 0.002968 0.404309
v 0.527006 0.003423 -0.213892
v 0.334240 -0.175357 -0.374360
v -0.365709 -0.130798 -0.173734
v -0.455185 0.015111 0.162255
v -0.083093 -0.174748 -0.448103
v -0.514891 0.027467 -0.412447
v 0.276281 -0.031986 -0.631333
v 0.521221 0.284886 0.055322
v 0.577211 0.266291 -0.368398
v 0.029467 0.252325 0.570017
v 0.330092 0.265836 0.404312
v -0.646328 0.290335 -0.007942
v -0.368868 0.264708 0.392542
v -0.464690 0.290335 -0.566957
v -0.725796 0.285431 -0.303756
v 0.415471 0.249970 -0.624362
v 0.002516 0.246984 -0.699419
v 0.386051 0.540258 0.189764
v -0.095235 0.528705 0.404309
v -0.596121 0.553203 -0.162448
v -0.220365 0.545983 -0.582410
v 0.432868 0.539748 -0.460021
v 0.123185 0.702718 0.189763
v 0.318225 0.729615 -0.200010
v -0.279084 0.707197 0.053358
v -0.315505 0.719855 -0.328240
v 0.136588 0.729616 -0.450007
vn 0.0726 -0.9694 0.2345
vn 0.7330 -0.6165 0.2875
vn -0.2036 -0.9694 0.1371
vn -0.2224 -0.9722 -0.0734
vn 0.0491 -0.9570 -0.2860
vn 0.9154 -0.2683 0.3002
vn 0.0176 -0.5466 0.8372
vn -0.8495 -0.3413 0.4023
vn -0.4945 -0.3683 -0.7873
vn 0.6006 -0.2779 -0.7497
vn 0.8722 -0.1348 0.4703
vn -0.3953 -0.3070 0.8658
vn -0.9346 -0.2478 0.2552
vn -0.2810 -0.1188 -0.9523
vn 0.8455 -0.0644 -0.5301
vn 0.4429 0.7166 0.5388
vn -0.3854 0.7251 0.5707
vn -0.5961 0.7668 -0.2381
vn -0.0219 0.6124 -0.7903
vn 0.7281 0.6654 -0.1649
vn 0.1341 0.9862 -0.0975
vn 0.4948 0.7911 -0.3595
vn 0.4068 0.6677 -0.6235
vn -0.0614 0.9869 -0.1489
vn -0.1785 0.7797 -0.6002
vn -0.3730 0.6948 -0.6149
vn -0.1379 0.9894 0.0460
vn -0.4763 0.8761 0.0745
vn -0.5789 0.7528 0.3133
vn -0.0489 0.9831 0.1764
vn -0.1651 0.8415 0.5144
vn 0.0418 0.7547 0.6547
vn 0.1527 0.9777 0.1439
vn 0.5005 0.8098 0.3063
vn 0.7239 0.6616 0.1954
vn 0.8911 0.3964 -0.2208
vn 0.8110 0.2510 -0.5285
vn 0.5790 0.3756 -0.7236
vn -0.0787 0.3119 -0.9469
vn -0.2523 0.1837 -0.9500
vn -0.4400 0.3711 -0.8177
vn -0.8153 0.5244 -0.2455
vn -0.9173 0.3169 0.2412
vn -0.8604 0.3702 0.3503
vn -0.4722 0.4558 0.7545
vn -0.3725 0.3478 0.8604
vn -0.0191 0.5078 0.8613
vn 0.6581 0.3759 0.6524
vn 0.8547 0.2002 0.4790
vn 0.9034 0.3417 0.2592
vn 0.1780 0.0666 -0.9818
vn 0.1789 -0.0640 -0.9818
vn -0.0721 -0.3027 -0.9504
vn -0.6978 0.1973 -0.6886
vn -0.6810 -0.2700 -0.6806
vn -0.7977 -0.5350 -0.2782
vn -0.8108 0.1323 0.5702
vn -0.8078 -0.2238 0.5453
vn -0.5152 -0.4781 0.7113
vn 0.4646 0.2111 0.8600
vn 0.4718 -0.2916 0.8321
vn 0.6369 -0.3936 0.6629
vn 0.9724 0.2004 0.1197
vn 0.9849 -0.1088 0.1349
vn 0.9470 -0.2768 -0.1632
vn 0.5329 -0.6821 -0.5007
vn 0.0871 -0.8615 -0.5003
vn -0.1097 -0.6682 -0.7359
vn -0.3791 -0.7035 -0.6012
vn -0.4247 -0.8539 -0.3007
vn -0.5975 -0.7879 -0.1490
vn -0.5828 -0.7906 0.1881
vn -0.3660 -0.8853 0.2870
vn -0.3420 -0.7855 0.5157
vn 0.7397 -0.6535 -0.1606
vn 0.6372 -0.7657 0.0876
vn 0.2872 -0.9561 0.0578
vn -0.0432 -0.7971 0.6023
vn 0.1814 -0.8781 0.4427
vn 0.5461 -0.6866 0.4799
vt 0.267549 0.216596
vt 0.263166 0.330517
vt 0.128832 0.304016
vt 0.679140 0.618031
vt 0.714410 0.711309
vt 0.602208 0.764643
vt 0.113883 0.121335
vt 0.260060 0.104465
vt 0.363779 0.221811
vt 0.569901 0.623828
vt 0.038615 0.362023
vt 0.126603 0.414956
vt 0.026713 0.432390
vt 0.768176 0.364550
vt 0.736390 0.229473
vt 0.844974 0.310291
vt 0.638272 0.254914
vt 0.628368 0.372088
vt 0.530220 0.345604
vt 0.666414 0.000000
vt 0.677391 0.082610
vt 0.577585 0.019893
vt 0.656909 0.508515
vt 0.736390 0.075632
vt 0.810320 0.000000
vt 0.819963 0.130089
vt 0.855404 0.421315
vt 0.562201 0.175020
vt 0.543119 0.838773
vt 0.448008 0.828490
vt 0.486500 0.759690
vt 0.292275 0.851514
vt 0.174232 0.834972
vt 0.253452 0.767864
vt 0.916064 0.210821
vt 0.919581 0.067188
vt 1.000000 0.208888
vt 0.280248 0.432391
vt 0.361229 0.492105
vt 0.247932 0.513315
vt 0.481886 0.075881
vt 0.443879 0.245024
vt 0.390556 0.103065
vt 0.044618 0.754596
vt 0.000000 0.664149
vt 0.103374 0.706532
vt 0.092020 0.591245
vt 0.180326 0.649194
vt 0.006936 0.566773
vt 0.152028 0.467548
vt 0.331958 0.629649
vt 0.949877 0.342370
vt 0.361229 0.775866
vt 0.525092 0.519672
vt 0.443471 0.648422
vt 0.390556 0.592502
vt 0.390556 0.719271
vt 0.472348 0.000000
vt 0.446021 0.364292
vt 0.946647 0.419126
vt 0.904769 0.009731
vt 0.602425 0.441310
vt 0.525686 0.439309
vt 0.108984 0.016149
vt 0.016894 0.064933
vt 0.000000 -0.000000
vt 0.710672 0.439309
vt 0.747093 0.551854
vt 0.736390 0.062747
vt 0.390556 0.132071
vt 0.719518 0.219350
vt 0.246490 0.029862
vt 0.000000 0.200595
vt 0.635228 0.836501
s 0
f 1/1/1 14/2/1 13/3/1
f 2/4/2 14/5/2 16/6/2
f 1/1/3 13/3/3 18/7/3
f 1/1/4 18/7/4 20/8/4
f 1/1/5 20/8/5 17/9/5
f 2/4/6 16/6/6 23/10/6
f 3/11/7 15/12/7 25/13/7
f 4/14/8 19/15/8 27/16/8
f 5/17/9 21/18/9 29/19/9
f 6/20/10 22/21/10 31/22/10
f 2/4/11 23/10/11 26/23/11
f 3/24/12 25/25/12 28/26/12
f 4/14/13 27/16/13 30/27/13
f 5/17/14 29/19/14 32/28/14
f 6/29/15 31/30/15 24/31/15
f 7/32/16 33/33/16 38/34/16
f 8/35/17 34/36/17 40/37/17
f 9/38/18 35/39/18 41/40/18
f 10/41/19 36/42/19 42/43/19
f 11/44/20 37/45/20 39/46/20
f 39/46/21 42/47/21 12/48/21
f 39/46/22 37/45/22 42/47/22
f 37/45/23 10/49/23 42/47/23
f 42/47/24 41/40/24 12/48/24
f 42/47/25 36/50/25 41/40/25
f 36/50/26 9/38/26 41/40/26
f 41/40/27 40/51/27 12/48/27
f 41/40/28 35/39/28 40/51/28
f 35/52/29 8/35/29 40/37/29
f 40/51/30 38/34/30 12/48/30
f 40/51/31 34/53/31 38/34/31
f 34/53/32 7/32/32 38/34/32
f 38/34/33 39/46/33 12/48/33
f 38/34/34 33/33/34 39/46/34
f 33/54/35 11/55/35 39/56/35
f 24/31/36 37/57/36 11/55/36
f 24/31/37 31/30/37 37/57/37
f 31/22/38 10/41/38 37/58/38
f 32/28/39 36/42/39 10/41/39
f 32/28/40 29/19/40 36/42/40
f 29/19/41 9/59/41 36/42/41
f 30/27/42 35/52/42 9/60/42
f 30/27/43 27/16/43 35/52/43
f 27/16/44 8/35/44 35/52/44
f 28/26/45 34/36/45 8/35/45
f 28/26/46 25/25/46 34/36/46
f 25/25/47 7/61/47 34/36/47
f 26/23/48 33/54/48 7/62/48
f 26/23/49 23/10/49 33/54/49
f 23/10/50 11/55/50 33/54/50
f 31/22/51 32/28/51 10/41/51
f 31/22/52 22/21/52 32/28/52
f 22/21/53 5/17/53 32/28/53
f 29/19/54 30/63/54 9/59/54
f 29/19/55 21/18/55 30/63/55
f 21/64/56 4/65/56 30/66/56
f 27/16/57 28/26/57 8/35/57
f 27/16/58 19/15/58 28/26/58
f 19/15/59 3/24/59 28/26/59
f 25/67/60 26/23/60 7/62/60
f 25/67/61 15/68/61 26/23/61
f 15/68/62 2/4/62 26/23/62
f 23/10/63 24/31/63 11/55/63
f 23/10/64 16/6/64 24/31/64
f 16/6/65 6/29/65 24/31/65
f 17/69/66 22/21/66 6/20/66
f 17/9/67 20/8/67 22/70/67
f 20/71/68 5/17/68 22/21/68
f 20/8/69 21/64/69 5/72/69
f 20/8/70 18/7/70 21/64/70
f 18/7/71 4/65/71 21/64/71
f 18/7/72 19/73/72 4/65/72
f 18/7/73 13/3/73 19/73/73
f 13/3/74 3/11/74 19/73/74
f 16/6/75 17/74/75 6/29/75
f 16/6/76 14/5/76 17/74/76
f 14/2/77 1/1/77 17/9/77
f 13/3/78 15/12/78 3/11/78
f 13/3/79 14/2/79 15/12/79
f 14/5/80 2/4/80 15/68/80
